{"title":"Jennifer Lopez - Same Girl [Music Video] 720p [Sbyky]","uid":9652368,"size":43890004,"categoryP":"video","categoryS":"music_videos","magnet":"?xt=urn:btih:719e2659a95f4c268880c9b72e6329c70819c46e&amp;dn=Jennifer+Lopez+-+Same+Girl+%5BMusic+Video%5D+720p+%5BSbyky%5D&amp;tr=udp%3A%2F%2Ftracker.openbittorrent.com%3A80&amp;tr=udp%3A%2F%2Fopen.demonii.com%3A1337&amp;tr=udp%3A%2F%2Ftracker.coppersurfer.tk%3A6969&amp;tr=udp%3A%2F%2Fexodus.desync.com%3A6969","seeders":1,"leechers":2,"uploader":"Sbyky","files":1,"time":1393098719,"description":"\n\nGeneral\nComplete name                            : Jennifer Lopez - Same Girl [Music Video] 720p [Sbyky].MP4\nFormat                                   : MPEG-4\nFormat profile                           : Base Media\nCodec ID                                 : isom\nFile size                                : 41.9 MiB\nDuration                                 : 3mn 32s\nOverall bit rate mode                    : Variable\nOverall bit rate                         : 1 656 Kbps\nEncoded date                             : UTC 2014-02-07 11:29:27\nTagged date                              : UTC 2014-02-07 11:29:27\n\nVideo\nID                                       : 1\nFormat                                   : AVC\nFormat/Info                              : Advanced Video Codec\nFormat profile                           : &lt;a class=&quot;__cf_email__&quot; href=&quot;/cdn-cgi/l/email-protection&quot; data-cfemail=&quot;c18ca0a8af818df2eff0&quot;&gt;[email&amp;#160;protected]&lt;/a&gt;&lt;script cf-hash='f9e31' type=&quot;text/javascript&quot;&gt;\n/* &lt;![CDATA[ */!function(){try{var t=&quot;currentScript&quot;in document?document.currentScript:function(){for(var t=document.getElementsByTagName(&quot;script&quot;),e=t.length;e--;)if(t[e].getAttribute(&quot;cf-hash&quot;))return t[e]}();if(t&amp;&amp;t.previousSibling){var e,r,n,i,c=t.previousSibling,a=c.getAttribute(&quot;data-cfemail&quot;);if(a){for(e=&quot;&quot;,r=parseInt(a.substr(0,2),16),n=2;a.length-n;n+=2)i=parseInt(a.substr(n,2),16)^r,e+=String.fromCharCode(i);e=document.createTextNode(e),c.parentNode.replaceChild(e,c)}}}catch(u){}}();/* ]]&gt; */&lt;/script&gt;\nFormat settings, CABAC                   : Yes\nFormat settings, ReFrames                : 3 frames\nCodec ID                                 : avc1\nCodec ID/Info                            : Advanced Video Coding\nDuration                                 : 3mn 31s\nDuration_LastFrame                       : -40ms\nBit rate                                 : 1 527 Kbps\nWidth                                    : 1 280 pixels\nHeight                                   : 720 pixels\nDisplay aspect ratio                     : 16:9\nFrame rate mode                          : Constant\nFrame rate                               : 23.976 fps\nColor space                              : YUV\nChroma subsampling                       : 4:2:0\nBit depth                                : 8 bits\nScan type                                : Progressive\nBits/(Pixel*Frame)                       : 0.069\nStream size                              : 38.6 MiB (92%)\nEncoded date                             : UTC 2014-02-07 11:29:27\nTagged date                              : UTC 2014-02-07 11:29:27\n\nAudio\nID                                       : 2\nFormat                                   : AAC\nFormat/Info                              : Advanced Audio Codec\nFormat profile                           : LC\nCodec ID                                 : 40\nDuration                                 : 3mn 32s\nBit rate mode                            : Variable\nBit rate                                 : 126 Kbps\nChannel(s)                               : 2 channels\nChannel positions                        : Front: L R\nSampling rate                            : 44.1 KHz\nCompression mode                         : Lossy\nStream size                              : 3.17 MiB (8%)\nEncoded date                             : UTC 2014-02-07 11:26:13\nTagged date                              : UTC 2014-02-07 11:26:13\n\nShared By Sbyky\n","torrent":{"xt":"urn:btih:719e2659a95f4c268880c9b72e6329c70819c46e","amp;dn":"Jennifer+Lopez+-+Same+Girl+%5BMusic+Video%5D+720p+%5BSbyky%5D","amp;tr":["udp%3A%2F%2Ftracker.openbittorrent.com%3A80","udp%3A%2F%2Fopen.demonii.com%3A1337","udp%3A%2F%2Ftracker.coppersurfer.tk%3A6969","udp%3A%2F%2Fexodus.desync.com%3A6969"],"infoHash":"719e2659a95f4c268880c9b72e6329c70819c46e","infoHashBuffer":{"type":"Buffer","data":[113,158,38,89,169,95,76,38,136,128,201,183,46,99,41,199,8,25,196,110]},"announce":[],"urlList":[]}}